<svg width="150" height="79" viewBox="0 0 1600 892" fill="none" xmlns="http://www.w3.org/2000/svg">
<rect width="1600" height="892" fill="#29304C"/>
<path d="M245 457.772C249.675 457.18 254.625 456.504 256 456.27C260.96 455.425 290.692 456.706 299.139 458.129C325.098 462.503 344.224 469.909 361.75 482.373C367.55 486.498 369.366 489.076 367.04 489.884C366.513 490.067 360.55 495.601 353.79 502.182C347.031 508.762 337.816 517.725 333.313 522.097L325.125 530.048L318.841 524.23C311.442 517.38 300.421 511.797 288 508.606C277.047 505.792 256.305 505.512 245 508.027C230.873 511.168 219.618 518.687 213.554 529.034C211.418 532.68 210.692 535.45 210.273 541.56C208.651 565.235 222.804 575.261 281.639 592.114C319.012 602.819 333.114 609.607 349.217 624.646C366.218 640.523 372.379 655.987 372.355 682.717C372.341 698.045 370.094 709.548 365.052 720.102C351.239 749.012 325.464 767.087 286.151 775.431C274.451 777.914 271.696 778.117 249.5 778.133C230.612 778.147 223.477 777.77 216 776.364C183.268 770.209 162.806 760.899 143.25 743.266C140.363 740.662 138 738 138 737.349C138 736.304 179.9 698.597 181.762 697.967C182.168 697.83 185.96 701.056 190.188 705.137C207.406 721.753 228.38 729.479 253.481 728.451C268.022 727.856 277.891 725.399 287.359 720.017C300.831 712.361 308.135 702.018 308.836 689.607C309.6 676.086 304.807 667.022 292.501 658.717C280.862 650.864 261.308 643.339 230 634.667C209.711 629.047 195.001 622.933 182.519 614.933C167.787 605.49 154.056 589.136 150.117 576.34C143.857 556.004 145.33 528.84 153.574 512.57C156.933 505.942 166.428 493.37 171.61 488.688C189.471 472.553 215.781 461.47 245 457.772Z" fill="white"/>
<path d="M1168.17 468.996C1166.43 465.574 1165 462.463 1165 462.083C1165 461.348 1218.07 461.986 1306.84 463.789C1356.71 464.802 1361.36 465.04 1363.34 466.689C1384.48 484.303 1394.21 494.239 1402.23 506.42C1413.17 523.018 1417 534.11 1417.71 551.217C1418.27 564.643 1417.14 571.234 1412.04 584.454C1405.79 600.656 1388.58 622.154 1370.58 636.25C1366.04 639.808 1363.4 642.533 1363.88 643.169C1365.54 645.372 1387.93 676.61 1393.66 684.717C1396.96 689.392 1402.59 697.267 1406.17 702.217C1409.74 707.167 1420.88 722.692 1430.92 736.717C1440.95 750.742 1449.99 763.342 1451.01 764.717C1452.02 766.092 1455.11 770.41 1457.87 774.313L1462.89 781.408L1447.19 782.059C1438.56 782.417 1420.7 782.709 1407.5 782.707L1383.5 782.703L1381.08 778.96C1379.75 776.901 1377.66 773.642 1376.43 771.717C1372.85 766.116 1326.74 691.874 1315.11 672.998L1304.5 655.78L1284 655.733C1272.72 655.707 1262.96 655.344 1262.3 654.925C1261.08 654.148 1234 597.477 1234 595.696C1234 595.068 1255.13 594.717 1292.9 594.717H1351.79L1355.05 591.013C1356.83 588.975 1359.47 584.813 1360.9 581.763C1363.18 576.893 1363.5 574.938 1363.5 565.717C1363.5 555.95 1363.27 554.739 1360.26 548.37C1357.2 541.906 1352.8 535.387 1348.85 531.473C1347.22 529.851 1341.88 529.712 1272 529.473L1196.91 529.217L1184.12 502.217C1177.09 487.367 1169.91 472.417 1168.17 468.996Z" fill="white"/>
<path d="M717.977 586.217C717.468 546.617 717.04 502.854 717.026 488.967L717 463.717H746.941C763.409 463.717 777.09 464.054 777.344 464.467C777.598 464.88 778.327 521.242 778.964 589.717C779.601 658.192 780.34 715.679 780.606 717.467L781.091 720.717H852.577C908.891 720.717 924.145 720.982 924.452 721.967C924.666 722.655 925.062 733.905 925.333 746.967L925.825 770.717H823.063H720.302L719.602 714.467C719.218 683.53 718.487 625.817 717.977 586.217Z" fill="white"/>
<path d="M1077.93 527.69C1081.54 520.8 1090.55 503.579 1097.94 489.421C1105.34 475.263 1111.81 463.822 1112.34 463.996C1113.31 464.319 1124.22 485.658 1180.48 597.217C1197.96 631.867 1224.61 684.666 1239.71 714.548C1254.82 744.43 1266.9 769.153 1266.56 769.488C1266.23 769.823 1251.9 769.553 1234.73 768.887C1217.55 768.222 1202.24 767.686 1200.69 767.697C1198.27 767.714 1197.58 767.011 1195.56 762.467C1194.28 759.579 1188.17 746.867 1182 734.217C1175.82 721.567 1168.18 705.817 1165.01 699.217C1159.49 687.713 1154.13 676.651 1133.25 633.717C1128.03 622.992 1121.14 608.704 1117.92 601.967C1114.7 595.23 1111.82 589.717 1111.52 589.717C1111.22 589.717 1109.8 592.304 1108.37 595.467C1102.89 607.582 1094.69 625.485 1091.77 631.717C1090.09 635.292 1086.6 642.942 1084 648.717C1081.4 654.492 1077.82 662.367 1076.03 666.217C1074.25 670.067 1070.62 677.942 1067.97 683.717C1065.33 689.492 1058 705.467 1051.69 719.217C1045.38 732.967 1037.78 749.617 1034.8 756.217L1029.38 768.217L990.688 768.479C969.409 768.623 952 768.453 952 768.102C952 767.751 953.742 764.258 955.87 760.34C957.999 756.422 963.012 746.917 967.011 739.217C971.01 731.517 975.959 722.067 978.008 718.217C980.058 714.367 985.228 704.467 989.499 696.217C993.769 687.967 998.509 678.967 1000.03 676.217C1001.55 673.467 1007.96 661.317 1014.26 649.217C1020.56 637.117 1028.21 622.492 1031.24 616.717C1036.03 607.618 1044.29 591.866 1077.93 527.69Z" fill="white"/>
<path fill-rule="evenodd" clip-rule="evenodd" d="M397.148 116.75C395.857 120.463 391.885 131.375 388.319 141C384.754 150.625 380.338 162.55 378.507 167.5C376.676 172.45 370.668 188.65 365.155 203.5C336.505 280.679 313.7 342.751 313.261 344.75L312.767 347H337.148H361.53L369.841 322L378.152 297L417.826 297.021L457.5 297.042L462.15 311.271C464.707 319.097 468.484 330.337 470.544 336.25L474.288 347H499.144C515.511 347 524 346.649 524 345.971C524 345.085 501.095 282.667 494.47 265.5C493.197 262.2 488.948 250.725 485.028 240C481.108 229.275 477.252 218.925 476.46 217C475.667 215.075 471.379 203.6 466.93 191.5C459.827 172.179 451.719 150.254 441.783 123.5C440.149 119.1 438.36 114.263 437.808 112.75L436.804 110H418.149H399.493L397.148 116.75ZM579.441 110C597.834 110 613.121 110.386 613.412 110.858C613.911 111.666 623.585 143.531 640.625 200.5C644.737 214.25 648.534 226.85 649.061 228.5C649.589 230.15 652.055 238.25 654.541 246.5C654.857 247.55 655.156 248.54 655.437 249.474C658.793 260.627 659.724 263.72 660.328 263.657C660.559 263.633 660.742 263.145 660.996 262.468L660.997 262.467L661.042 262.345C661.081 262.242 661.122 262.134 661.165 262.024L661.174 262C662.085 259.66 674.636 218.917 677.501 209C678.216 206.525 684.073 187.175 690.516 166C696.959 144.825 703.39 123.563 704.807 118.75L707.383 110H741.192H775V228.5V347H752.505H730.011L729.755 256.358L729.5 165.716L725.16 180.608C722.773 188.799 719.559 199.775 718.019 205C715.082 214.963 711.334 227.723 700.393 265C696.761 277.375 691.643 294.925 689.019 304C686.395 313.075 682.505 326.462 680.374 333.75L676.5 347H659.289H642.077L640.963 342.75C640.35 340.412 635.203 322.075 629.524 302C623.845 281.925 615.283 251.55 610.496 234.5C605.71 217.45 599.873 196.75 597.525 188.5C595.177 180.25 592.93 172.005 592.533 170.178C592.135 168.352 591.596 167.07 591.336 167.331C591.075 167.591 590.907 207.374 590.963 255.737C591.019 304.1 590.777 344.418 590.425 345.334C589.856 346.818 587.398 347 567.893 347H546V228.5V110H579.441ZM1088.83 397.631L1084.6 386H623.798H163V398V410L550.75 410.156C922.491 410.306 1092.17 410.11 1092.79 409.531C1092.94 409.383 1091.16 404.028 1088.83 397.631ZM181 347V228.5V110H249H317V134V158H271.5H226V182.5V207H268H310V231V255H268H226V301V347H203.5H181ZM442.115 252.25L417 181L391.885 252.25H442.115Z" fill="#FEBD01"/>
<path fill-rule="evenodd" clip-rule="evenodd" d="M521.149 511.88C501.383 527.55 477.917 535.764 460.837 532.992C457.352 532.427 454.163 531.961 453.75 531.957C453.337 531.952 453 535.147 453 539.055C453 554.092 446.898 568.156 435.998 578.24C429.366 584.375 417.208 591.357 410.993 592.6C409.347 592.93 408 593.348 408 593.53C408 593.711 409.105 595.489 410.456 597.48C421.277 613.426 423.026 643.897 414.636 670.318L412.265 677.784L418.875 681.117C427.256 685.342 437.516 695.355 442.271 703.949C446.77 712.08 450.458 723.12 452.058 733.249L453.29 741.048L462.395 740.398C484.907 738.791 508.98 746.17 527.575 760.378C528.416 761.021 530.692 759.586 534.966 755.718C542.486 748.913 554.605 742.673 566 739.738C572.982 737.94 577.402 737.54 590.749 737.499L606.998 737.449L606.999 733.859C607.001 727.822 610.767 715.12 614.736 707.765C619.458 699.013 630.14 687.328 640.33 679.768C644.636 676.573 648.832 673.583 649.654 673.123C650.908 672.421 650.582 671.257 647.62 665.868C639.015 650.211 638.756 627.933 646.878 602.131C649.515 593.757 649.644 592.754 648.156 592.223C629.555 585.588 618.444 575.734 611.919 560.087C608.622 552.181 606.045 541.631 606.017 535.922L606 532.395L591.25 532.422C573.865 532.454 565.783 530.798 553.572 524.704C545.475 520.663 532.704 511.133 530.921 507.801C530.376 506.782 529.608 505.972 529.215 506.001C528.822 506.03 525.192 508.675 521.149 511.88ZM529.5 707C570.093 707 603 674.093 603 633.5C603 592.907 570.093 560 529.5 560C488.907 560 456 592.907 456 633.5C456 674.093 488.907 707 529.5 707Z" fill="#FEBD01"/>
<circle cx="529.5" cy="633.5" r="64.5" fill="#FEBD01"/>
</svg>
